<svg width="50" height="50" viewBox="0 0 50 50" fill="none" xmlns="http://www.w3.org/2000/svg">
<circle cx="25" cy="25" r="23.5" stroke="#4B5320" stroke-width="3"/>
<g clip-path="url(#clip0_382_50)">
<path d="M37 17.7484C36.0703 18.1562 35.0797 18.4266 34.0469 18.5578C35.1094 17.9234 35.9203 16.9266 36.3016 15.725C35.3109 16.3156 34.2172 16.7328 33.0516 16.9656C32.1109 15.9641 30.7703 15.3438 29.3078 15.3438C26.4703 15.3438 24.1859 17.6469 24.1859 20.4703C24.1859 20.8766 24.2203 21.2672 24.3047 21.6391C20.0437 21.4312 16.2734 19.3891 13.7406 16.2781C13.2984 17.0453 13.0391 17.9234 13.0391 18.8688C13.0391 20.6438 13.9531 22.2172 15.3156 23.1281C14.4922 23.1125 13.6844 22.8734 13 22.4969C13 22.5125 13 22.5328 13 22.5531C13 25.0437 14.7766 27.1125 17.1062 27.5891C16.6891 27.7031 16.2344 27.7578 15.7625 27.7578C15.4344 27.7578 15.1031 27.7391 14.7922 27.6703C15.4562 29.7 17.3406 31.1922 19.5813 31.2406C17.8375 32.6047 15.6234 33.4266 13.2266 33.4266C12.8063 33.4266 12.4031 33.4078 12 33.3563C14.2703 34.8203 16.9609 35.6562 19.8625 35.6562C29.2937 35.6562 34.45 27.8438 34.45 21.0719C34.45 20.8453 34.4422 20.6266 34.4312 20.4094C35.4484 19.6875 36.3031 18.7859 37 17.7484Z" fill="#4B5320"/>
</g>
<defs>
<clipPath id="clip0_382_50">
<rect width="25" height="25" fill="white" transform="translate(12 13)"/>
</clipPath>
</defs>
</svg>
