<svg width="50" height="50" viewBox="0 0 50 50" fill="none" xmlns="http://www.w3.org/2000/svg">
<circle cx="25" cy="25" r="25" fill="#91A3B0"/>
<path d="M30.1006 12H18.8989C15.0949 12 12 15.095 12 18.8991V30.1008C12 33.905 15.0949 36.9999 18.8989 36.9999H30.1006C33.905 36.9999 36.9999 33.9049 36.9999 30.1008V18.8991C37 15.095 33.905 12 30.1006 12ZM34.7819 30.1008C34.7819 32.6819 32.6819 34.7817 30.1008 34.7817H18.8989C16.3179 34.7819 14.2181 32.6819 14.2181 30.1008V18.8991C14.2181 16.3181 16.3179 14.2181 18.8989 14.2181H30.1006C32.6818 14.2181 34.7817 16.3181 34.7817 18.8991V30.1008H34.7819Z" fill="#FFFAF0"/>
<path d="M24.4999 18.0584C20.9479 18.0584 18.0581 20.9482 18.0581 24.5002C18.0581 28.0522 20.9479 30.9418 24.4999 30.9418C28.052 30.9418 30.9418 28.0522 30.9418 24.5002C30.9418 20.9482 28.052 18.0584 24.4999 18.0584ZM24.4999 28.7235C22.1711 28.7235 20.2762 26.8289 20.2762 24.5001C20.2762 22.1711 22.1709 20.2764 24.4999 20.2764C26.8289 20.2764 28.7237 22.1711 28.7237 24.5001C28.7237 26.8289 26.8288 28.7235 24.4999 28.7235Z" fill="#FFFAF0"/>
<path d="M31.2121 16.1776C30.7847 16.1776 30.3649 16.3506 30.0631 16.6537C29.7598 16.9554 29.5854 17.3754 29.5854 17.8042C29.5854 18.2317 29.7599 18.6515 30.0631 18.9547C30.3647 19.2563 30.7847 19.4308 31.2121 19.4308C31.6409 19.4308 32.0594 19.2563 32.3625 18.9547C32.6656 18.6515 32.8387 18.2316 32.8387 17.8042C32.8387 17.3754 32.6656 16.9554 32.3625 16.6537C32.0608 16.3506 31.6409 16.1776 31.2121 16.1776Z" fill="#FFFAF0"/>
</svg>
