<svg width="381" height="381" viewBox="0 0 381 381" fill="none" xmlns="http://www.w3.org/2000/svg">
<ellipse cx="190.194" cy="190.5" rx="190.194" ry="190.5" fill="#91A3B0"/>
<g clip-path="url(#clip0_1052_228)">
<path opacity="0.984" fill-rule="evenodd" clip-rule="evenodd" d="M123.826 72.7559C110.212 72.7559 96.5974 72.7559 82.9835 72.7559C81.9222 73.373 81.1161 74.2701 80.5652 75.4472C80.2068 82.9829 80.2068 90.5186 80.5652 98.0542C81.1924 98.6822 81.819 99.3101 82.4461 99.9381C93.875 100.727 105.339 100.997 116.84 100.746C119.068 100.302 121.397 100.032 123.826 99.9381C125.076 98.9666 125.971 97.8004 126.513 96.4394C126.602 89.6191 126.513 82.8011 126.244 75.9855C125.812 74.5613 125.006 73.4848 123.826 72.7559Z" fill="#FCCF42"/>
<path opacity="0.985" fill-rule="evenodd" clip-rule="evenodd" d="M126.512 96.4394C125.971 97.8003 125.075 98.9666 123.825 99.9381C121.397 100.032 119.068 100.302 116.839 100.745C116.839 106.666 116.839 112.587 116.839 118.508C116.839 128.018 116.839 137.527 116.839 147.036C116.839 150.266 116.839 153.495 116.839 156.725C116.75 161.035 116.839 165.341 117.108 169.643C118.1 173.139 120.339 174.305 123.825 173.142C125.067 172.261 125.873 171.094 126.244 169.643C126.512 165.341 126.602 161.035 126.512 156.725C126.512 153.495 126.512 150.266 126.512 147.036C126.512 137.527 126.512 128.018 126.512 118.508C126.512 111.152 126.512 103.796 126.512 96.4394Z" fill="#656466"/>
<path fill-rule="evenodd" clip-rule="evenodd" d="M236.142 118.508C255.632 122.132 267.723 133.615 272.416 152.957C272.684 155.283 272.774 157.615 272.685 159.954C278.954 159.954 285.224 159.954 291.494 159.954C290.934 142.993 283.231 130.523 268.386 122.545C265.263 121.16 262.038 120.084 258.712 119.315C251.213 118.569 243.689 118.299 236.142 118.508Z" fill="#B83C26"/>
<path fill-rule="evenodd" clip-rule="evenodd" d="M236.142 118.508C233.096 118.508 230.052 118.508 227.006 118.508C204.561 123.227 192.381 137.043 190.463 159.954C217.87 159.954 245.278 159.954 272.685 159.954C272.774 157.615 272.684 155.283 272.416 152.957C267.724 133.615 255.632 122.132 236.142 118.508Z" fill="#CF442B"/>
<path fill-rule="evenodd" clip-rule="evenodd" d="M227.007 118.508C193.509 118.508 160.011 118.508 126.513 118.508C126.513 128.018 126.513 137.527 126.513 147.036C135.702 149.003 141.524 154.565 143.979 163.722C145.801 175.771 141.412 184.652 130.813 190.366C119.466 194.113 110.062 191.332 102.599 182.023C95.5073 167.82 98.6419 156.606 112.004 148.382C113.579 147.765 115.192 147.317 116.84 147.036C116.84 137.527 116.84 128.018 116.84 118.508C107.523 118.418 98.2087 118.508 88.8956 118.777C69.2221 122.425 57.2204 133.998 52.89 153.495C52.89 188.661 52.89 223.828 52.89 258.994C53.7015 259.714 54.5973 260.342 55.577 260.878C82.0879 261.148 108.6 261.237 135.112 261.148C144.427 261.148 153.742 261.148 163.057 261.148C172.192 261.148 181.328 261.148 190.464 261.148C190.464 236.926 190.464 212.704 190.464 188.482C190.464 183.817 190.464 179.152 190.464 174.487C190.464 169.643 190.464 164.799 190.464 159.954C192.381 137.043 204.562 123.227 227.007 118.508Z" fill="#EF7A51"/>
<path fill-rule="evenodd" clip-rule="evenodd" d="M126.513 147.036C126.513 150.265 126.513 153.495 126.513 156.725C133.653 159.721 136.43 165.104 134.843 172.872C132.095 180.215 126.811 183.534 118.989 182.83C108.729 178.867 105.773 171.78 110.122 161.569C111.873 159.175 114.112 157.561 116.84 156.725C116.84 153.495 116.84 150.265 116.84 147.036C115.191 147.317 113.579 147.765 112.003 148.382C98.6414 156.606 95.5068 167.82 102.599 182.023C110.061 191.332 119.466 194.113 130.812 190.366C141.412 184.652 145.801 175.77 143.978 163.722C141.524 154.565 135.702 149.003 126.513 147.036Z" fill="#FCCE41"/>
<path fill-rule="evenodd" clip-rule="evenodd" d="M126.513 156.725C126.603 161.034 126.513 165.341 126.245 169.643C125.874 171.094 125.068 172.26 123.826 173.142C120.34 174.305 118.101 173.139 117.109 169.643C116.84 165.341 116.751 161.034 116.84 156.725C114.112 157.561 111.873 159.175 110.123 161.569C105.774 171.78 108.729 178.867 118.99 182.83C126.812 183.534 132.096 180.215 134.843 172.872C136.43 165.104 133.653 159.721 126.513 156.725Z" fill="#E0A527"/>
<path fill-rule="evenodd" clip-rule="evenodd" d="M291.494 159.954C285.224 159.954 278.954 159.954 272.685 159.954C245.277 159.954 217.87 159.954 190.463 159.954C190.463 164.799 190.463 169.643 190.463 174.487C210.414 190.251 230.297 206.13 250.114 222.124C253.159 224.636 256.204 224.636 259.25 222.124C281.104 204.54 302.958 186.957 324.812 169.374C325.872 169.107 326.947 169.018 328.037 169.105C328.037 166.772 328.037 164.44 328.037 162.107C327.225 161.388 326.329 160.76 325.35 160.223C314.066 159.954 302.78 159.864 291.494 159.954Z" fill="#EAEAEB"/>
<path fill-rule="evenodd" clip-rule="evenodd" d="M328.037 169.105C326.947 169.017 325.872 169.107 324.812 169.374C302.958 186.957 281.104 204.54 259.25 222.123C256.204 224.635 253.159 224.635 250.114 222.123C230.297 206.129 210.414 190.251 190.463 174.487C190.463 179.152 190.463 183.817 190.463 188.482C210.796 204.809 231.217 221.047 251.726 237.195C253.697 238.271 255.667 238.271 257.638 237.195C280.925 218.361 304.391 199.791 328.037 181.485C328.037 177.358 328.037 173.231 328.037 169.105Z" fill="#D7D8D9"/>
<path opacity="0.999" fill-rule="evenodd" clip-rule="evenodd" d="M328.037 181.485C304.391 199.791 280.925 218.361 257.638 237.195C255.667 238.271 253.697 238.271 251.726 237.195C231.217 221.047 210.796 204.809 190.463 188.482C190.463 212.704 190.463 236.926 190.463 261.147C224.14 261.147 257.816 261.147 291.494 261.147C302.78 261.237 314.066 261.147 325.35 260.878C326.329 260.342 327.225 259.714 328.037 258.994C328.037 233.158 328.037 207.321 328.037 181.485Z" fill="#EAEAEB"/>
<path fill-rule="evenodd" clip-rule="evenodd" d="M160.368 233.696C139.23 233.606 118.092 233.696 96.9555 233.965C94.5001 235.333 93.694 237.397 94.5372 240.155C95.4169 241.399 96.5814 242.206 98.0303 242.577C118.63 242.937 139.231 242.937 159.831 242.577C163.818 239.772 163.998 236.811 160.368 233.696Z" fill="#B93D26"/>
<path fill-rule="evenodd" clip-rule="evenodd" d="M86.746 233.696C82.443 233.607 78.1438 233.696 73.8484 233.965C70.2607 237.014 70.4402 239.884 74.3858 242.578C78.3265 242.937 82.2678 242.937 86.2086 242.578C89.4566 240.999 90.2627 238.577 88.6268 235.311C88.0115 234.7 87.3844 234.161 86.746 233.696Z" fill="#B93D27"/>
<path opacity="0.996" fill-rule="evenodd" clip-rule="evenodd" d="M274.742 260.985C241.065 260.985 207.388 260.985 173.711 260.985C179.708 283.215 185.709 305.463 191.714 327.729C192.366 328.563 193.173 329.191 194.132 329.613C196.634 329.882 199.141 329.972 201.656 329.882C230.855 329.972 260.054 329.882 289.252 329.613C291.326 328.242 292.132 326.358 291.67 323.961C286.107 302.927 280.464 281.935 274.742 260.985Z" fill="#F48E6C"/>
<path opacity="0.998" fill-rule="evenodd" clip-rule="evenodd" d="M190.463 261.147C181.328 261.147 172.192 261.147 163.056 261.147C162.966 289.404 163.056 317.66 163.325 345.915C164.186 347.284 165.35 348.184 166.818 348.615C183.119 348.615 199.42 348.615 215.721 348.615C216.847 347.571 217.653 346.311 218.139 344.836C218.408 339.979 218.497 335.12 218.408 330.258C215.893 330.347 213.386 330.257 210.884 329.988C209.925 329.564 209.119 328.934 208.466 328.098C202.461 305.762 196.46 283.446 190.463 261.147Z" fill="#88898D"/>
<path opacity="0.988" fill-rule="evenodd" clip-rule="evenodd" d="M162.981 260.985C153.678 260.985 144.375 260.985 135.072 260.985C134.983 307.866 135.072 354.746 135.341 401.626C135.772 404.011 136.577 405.814 137.756 407.035C147.417 407.035 157.077 407.035 166.738 407.035C165.272 406.315 164.11 404.813 163.249 402.527C162.981 355.348 162.891 308.166 162.981 260.985Z" fill="#AEAFB3"/>
</g>
<defs>
<clipPath id="clip0_1052_228">
<rect width="275.148" height="275.59" fill="white" transform="matrix(-1 0 0 1 327.769 73.025)"/>
</clipPath>
</defs>
</svg>
