<svg width="205" height="204" viewBox="0 0 205 204" fill="none" xmlns="http://www.w3.org/2000/svg">
<circle cx="102.24" cy="102" r="95.88" stroke="#91A3B0" stroke-width="12.24"/>
<g clip-path="url(#clip0_1075_14)">
<path d="M123.051 48.9601H77.3482C61.8277 48.9601 49.2007 61.5877 49.2007 77.1083V122.811C49.2007 138.333 61.8277 150.96 77.3482 150.96H123.051C138.573 150.96 151.2 138.332 151.2 122.811V77.1083C151.201 61.5877 138.573 48.9601 123.051 48.9601ZM142.151 122.811C142.151 133.342 133.583 141.91 123.052 141.91H77.3482C66.8178 141.91 58.2506 133.342 58.2506 122.811V77.1083C58.2506 66.5778 66.8178 58.01 77.3482 58.01H123.051C133.582 58.01 142.15 66.5778 142.15 77.1083V122.811H142.151Z" fill="#91A3B0"/>
<path d="M100.201 73.6782C85.7086 73.6782 73.9185 85.4684 73.9185 99.9609C73.9185 114.453 85.7086 126.242 100.201 126.242C114.694 126.242 126.484 114.453 126.484 99.9609C126.484 85.4684 114.694 73.6782 100.201 73.6782ZM100.201 117.192C90.6994 117.192 82.9683 109.462 82.9683 99.9603C82.9683 90.4579 90.6987 82.7275 100.201 82.7275C109.703 82.7275 117.434 90.4579 117.434 99.9603C117.434 109.462 109.703 117.192 100.201 117.192Z" fill="#91A3B0"/>
<path d="M127.583 66.0045C125.84 66.0045 124.127 66.7103 122.896 67.9472C121.658 69.1779 120.947 70.8914 120.947 72.641C120.947 74.3852 121.659 76.0981 122.896 77.3349C124.126 78.5657 125.84 79.2776 127.583 79.2776C129.333 79.2776 131.04 78.5657 132.277 77.3349C133.514 76.0981 134.22 74.3846 134.22 72.641C134.22 70.8914 133.514 69.1779 132.277 67.9472C131.046 66.7103 129.333 66.0045 127.583 66.0045Z" fill="#91A3B0"/>
</g>
<defs>
<clipPath id="clip0_1075_14">
<rect width="102" height="102" fill="white" transform="translate(49.2007 48.9601)"/>
</clipPath>
</defs>
</svg>
