<svg width="205" height="204" viewBox="0 0 205 204" fill="none" xmlns="http://www.w3.org/2000/svg">
<circle cx="102.12" cy="102" r="95.88" stroke="#91A3B0" stroke-width="12.24"/>
<g clip-path="url(#clip0_1075_8)">
<path d="M151.081 72.4137C147.287 74.0776 143.246 75.1805 139.032 75.716C143.367 73.1277 146.675 69.0605 148.231 64.1581C144.189 66.5678 139.727 68.27 134.971 69.2199C131.133 65.1335 125.663 62.6026 119.696 62.6026C108.119 62.6026 98.7992 71.9994 98.7992 83.519C98.7992 85.1765 98.9394 86.7702 99.2837 88.2875C81.8991 87.4396 66.5162 79.1075 56.1823 66.4149C54.3782 69.545 53.3199 73.1277 53.3199 76.9846C53.3199 84.2266 57.0493 90.6462 62.6083 94.3628C59.2487 94.2991 55.9528 93.3237 53.1606 91.7874C53.1606 91.8511 53.1606 91.934 53.1606 92.0168C53.1606 102.179 60.4089 110.619 69.9141 112.563C68.2119 113.029 66.3568 113.252 64.4316 113.252C63.0928 113.252 61.7413 113.175 60.4727 112.895C63.1821 121.176 70.8703 127.264 80.0121 127.462C72.8976 133.027 63.8642 136.38 54.0849 136.38C52.3701 136.38 50.7253 136.304 49.0806 136.094C58.3434 142.067 69.3212 145.478 81.1596 145.478C119.639 145.478 140.677 113.603 140.677 85.9733C140.677 85.049 140.645 84.1565 140.6 83.2704C144.75 80.3251 148.237 76.6467 151.081 72.4137Z" fill="#91A3B0"/>
</g>
<defs>
<clipPath id="clip0_1075_8">
<rect width="102" height="102" fill="white" transform="translate(49.0811 53.04)"/>
</clipPath>
</defs>
</svg>
