<svg width="156" height="88" viewBox="0 0 156 88" fill="none" xmlns="http://www.w3.org/2000/svg">
<path d="M15.3966 45.2656C14.0945 45.2656 12.9096 44.9531 11.8419 44.3281C10.8002 43.7031 9.90181 42.8438 9.1466 41.75C8.41743 40.6562 7.85754 39.3802 7.46691 37.9219C7.10233 36.4375 6.94608 34.862 6.99816 33.1953C7.05024 31.6328 7.24556 29.9401 7.5841 28.1172C7.94868 26.2943 8.45649 24.4714 9.10754 22.6484C9.75858 20.7995 10.5398 19.0286 11.4513 17.3359C12.3888 15.6172 13.4565 14.1068 14.6544 12.8047C15.8523 11.5026 17.1805 10.4609 18.6388 9.67969C20.0971 8.8724 21.6987 8.46875 23.4435 8.46875C24.5112 8.46875 25.4096 8.6901 26.1388 9.13281C26.894 9.54948 27.493 10.1094 27.9357 10.8125C28.4044 11.5156 28.7299 12.3099 28.9122 13.1953C29.0945 14.0807 29.1726 14.9792 29.1466 15.8906C29.0945 16.75 28.9643 17.5833 28.756 18.3906C28.5737 19.1979 28.3002 19.9271 27.9357 20.5781C27.5971 21.2031 27.1674 21.7109 26.6466 22.1016C26.1518 22.4661 25.5789 22.6484 24.9278 22.6484C24.6153 22.6224 24.3159 22.5182 24.0294 22.3359C23.769 22.1797 23.4956 21.9453 23.2091 21.6328C22.9487 21.3203 22.7013 20.8646 22.4669 20.2656C23.17 19.9792 23.7169 19.4844 24.1075 18.7812C24.5242 18.0521 24.8367 17.2969 25.045 16.5156C25.2794 15.6302 25.4357 14.6406 25.5138 13.5469C25.5659 12.4792 25.3445 11.6979 24.8497 11.2031C24.3549 10.7083 23.795 10.4609 23.17 10.4609C21.9461 10.4609 20.657 11.099 19.3028 12.375C17.9487 13.651 16.6857 15.3828 15.5138 17.5703C14.368 19.7318 13.3914 22.2578 12.5841 25.1484C11.8028 28.0391 11.3471 31.099 11.2169 34.3281C11.1648 35.7865 11.256 37.0234 11.4903 38.0391C11.7508 39.0547 12.1023 39.888 12.545 40.5391C13.0138 41.1901 13.5346 41.6589 14.1075 41.9453C14.6805 42.2318 15.2534 42.375 15.8263 42.375C16.7377 42.375 17.5971 42.1797 18.4044 41.7891C19.2117 41.3984 19.9409 40.9167 20.5919 40.3438C21.269 39.7708 21.8419 39.1719 22.3107 38.5469C22.8055 37.9479 23.1831 37.4141 23.4435 36.9453C23.6258 36.6068 23.8211 36.3984 24.0294 36.3203C24.2377 36.2422 24.42 36.2682 24.5763 36.3984C24.7325 36.5026 24.8367 36.6849 24.8888 36.9453C24.9409 37.1797 24.8888 37.4661 24.7325 37.8047C24.2898 38.6901 23.743 39.5755 23.0919 40.4609C22.4669 41.3464 21.7508 42.1406 20.9435 42.8438C20.1622 43.5729 19.3028 44.1589 18.3653 44.6016C17.4278 45.0443 16.4383 45.2656 15.3966 45.2656ZM28.3653 37.375C29.5112 32.5573 30.4226 28.6901 31.0997 25.7734C31.8028 22.8568 32.3367 20.6302 32.7013 19.0938C33.118 17.2708 33.4044 16.0078 33.5607 15.3047C33.6388 14.8099 33.7039 14.3281 33.756 13.8594C33.8081 13.4427 33.8341 13.013 33.8341 12.5703C33.8341 12.1276 33.795 11.724 33.7169 11.3594C33.9252 11.2292 34.1466 11.125 34.381 11.0469C34.6414 10.9688 34.8888 10.9036 35.1232 10.8516C35.4096 10.7734 35.6961 10.7083 35.9825 10.6562C36.269 10.6042 36.5294 10.5781 36.7638 10.5781C36.9721 10.5781 37.1674 10.6042 37.3497 10.6562C37.532 10.6823 37.6492 10.7604 37.7013 10.8906C37.8575 11.0208 37.9226 11.2812 37.8966 11.6719C37.8966 12.0625 37.8706 12.4661 37.8185 12.8828C37.7143 13.3776 37.5971 13.9115 37.4669 14.4844C37.1544 15.6042 36.7247 17.2188 36.1778 19.3281C35.7091 21.125 35.0711 23.5729 34.2638 26.6719C33.4825 29.7708 32.493 33.6771 31.295 38.3906C31.1648 38.5208 31.0086 38.612 30.8263 38.6641C30.644 38.7161 30.4747 38.7422 30.3185 38.7422C30.1362 38.7422 29.9409 38.7292 29.7325 38.7031C29.5502 38.651 29.368 38.5729 29.1857 38.4688C29.0294 38.3646 28.8732 38.2214 28.7169 38.0391C28.5607 37.8828 28.4435 37.6615 28.3653 37.375ZM55.3966 29.875C54.6153 31.0208 53.7299 32.1406 52.7403 33.2344C51.7508 34.3021 50.6961 35.2656 49.5763 36.125C48.4825 36.9583 47.3497 37.6354 46.1778 38.1562C45.032 38.6771 43.9122 38.9375 42.8185 38.9375C42.2456 38.9375 41.6206 38.7943 40.9435 38.5078C40.2924 38.2474 39.6935 37.8307 39.1466 37.2578C38.5997 36.6849 38.157 35.9427 37.8185 35.0312C37.506 34.1198 37.4148 33.013 37.545 31.7109C37.6492 30.6432 37.9747 29.5234 38.5216 28.3516C39.0945 27.1536 39.7846 26.0599 40.5919 25.0703C41.4252 24.0807 42.3497 23.2604 43.3653 22.6094C44.407 21.9583 45.4487 21.6328 46.4903 21.6328C47.4799 21.6328 48.1961 21.8802 48.6388 22.375C49.0815 22.8698 49.2768 23.4818 49.2247 24.2109C49.1466 25.0182 48.9122 25.7604 48.5216 26.4375C48.157 27.1146 47.7143 27.7266 47.1935 28.2734C46.6726 28.8203 46.1127 29.3151 45.5138 29.7578C44.9409 30.2005 44.394 30.6042 43.8732 30.9688C43.3002 31.3594 42.7534 31.737 42.2325 32.1016C41.7117 32.4401 41.256 32.7526 40.8653 33.0391C40.8914 33.6901 41.0086 34.237 41.2169 34.6797C41.4252 35.1224 41.6857 35.487 41.9982 35.7734C42.3107 36.0339 42.6622 36.2292 43.0528 36.3594C43.4695 36.4635 43.8862 36.5156 44.3028 36.5156C45.1883 36.5156 46.1127 36.2422 47.0763 35.6953C48.0398 35.1224 48.9773 34.4453 49.8888 33.6641C50.8263 32.8568 51.6857 32.0234 52.4669 31.1641C53.2742 30.3047 53.9383 29.5625 54.4591 28.9375C54.6414 28.7292 54.8237 28.612 55.006 28.5859C55.2143 28.5339 55.3706 28.5599 55.4747 28.6641C55.6049 28.7422 55.67 28.8984 55.67 29.1328C55.67 29.3411 55.5789 29.5885 55.3966 29.875ZM45.3966 23.8594C45.0841 23.8594 44.7065 24.0156 44.2638 24.3281C43.8471 24.6406 43.4305 25.0964 43.0138 25.6953C42.5971 26.2682 42.2065 26.9844 41.8419 27.8438C41.4773 28.6771 41.2039 29.6406 41.0216 30.7344C41.3341 30.5 41.6726 30.2656 42.0372 30.0312C42.4018 29.7708 42.7664 29.4974 43.131 29.2109C44.2508 28.3516 45.032 27.5964 45.4747 26.9453C45.9174 26.2943 46.1648 25.7344 46.2169 25.2656C46.269 24.7708 46.2169 24.4193 46.0607 24.2109C45.9044 23.9766 45.6831 23.8594 45.3966 23.8594ZM64.1466 31.7891C63.8862 32.7786 63.5346 33.7031 63.0919 34.5625C62.6492 35.4219 62.1153 36.1641 61.4903 36.7891C60.8914 37.4141 60.2013 37.8958 59.42 38.2344C58.6648 38.599 57.8315 38.7812 56.92 38.7812C55.8523 38.7812 55.006 38.5469 54.381 38.0781C53.782 37.6354 53.3263 37.0755 53.0138 36.3984C52.7273 35.7214 52.5581 34.9792 52.506 34.1719C52.4278 33.3646 52.3888 32.6094 52.3888 31.9062C52.3888 31.4115 52.4539 30.8646 52.5841 30.2656C52.6883 29.6667 52.8445 29.0547 53.0528 28.4297C53.2612 27.8047 53.5216 27.1797 53.8341 26.5547C54.1726 25.9297 54.5633 25.3568 55.006 24.8359C55.1622 24.3932 55.3966 24.0026 55.7091 23.6641C56.0476 23.3255 56.4252 23.0521 56.8419 22.8438C57.2846 22.6094 57.7534 22.4401 58.2482 22.3359C58.743 22.2057 59.2247 22.1406 59.6935 22.1406C59.7716 22.1406 59.8367 22.1536 59.8888 22.1797C59.9669 22.2057 60.045 22.2318 60.1232 22.2578C60.4617 22.2839 60.8784 22.4141 61.3732 22.6484C61.894 22.8828 62.3888 23.2344 62.8575 23.7031C63.3523 24.1719 63.769 24.7708 64.1075 25.5C64.4461 26.2031 64.6153 27.0625 64.6153 28.0781C64.6153 28.2865 64.6023 28.5469 64.5763 28.8594C64.5502 29.1458 64.5242 29.3932 64.4982 29.6016C65.0971 29.3672 65.7221 29.0807 66.3732 28.7422C67.0242 28.4036 67.6492 28.0521 68.2482 27.6875C68.8732 27.2969 69.4461 26.9062 69.9669 26.5156C70.4877 26.125 70.9044 25.7734 71.2169 25.4609C71.4773 25.2266 71.6987 25.0964 71.881 25.0703C72.0633 25.0443 72.1935 25.0964 72.2716 25.2266C72.3497 25.3568 72.3627 25.5391 72.3107 25.7734C72.2586 26.0078 72.1153 26.2682 71.881 26.5547C71.7508 26.7109 71.4122 27.0234 70.8653 27.4922C70.3445 27.9609 69.7195 28.4688 68.9903 29.0156C68.2612 29.5625 67.4669 30.0964 66.6075 30.6172C65.7482 31.138 64.9278 31.5286 64.1466 31.7891ZM57.545 25.8516C57.4669 26.0859 57.4278 26.3333 57.4278 26.5938C57.4278 27.0104 57.4539 27.4531 57.506 27.9219C57.5581 28.3646 57.6883 28.7682 57.8966 29.1328C58.1049 29.4974 58.4305 29.8099 58.8732 30.0703C59.3419 30.3047 59.9799 30.4219 60.7872 30.4219C60.9174 30.4219 61.0476 30.4219 61.1778 30.4219C61.3081 30.3958 61.4383 30.3698 61.5685 30.3438C61.6466 30.0052 61.7117 29.7057 61.7638 29.4453C61.8419 29.1589 61.881 28.9115 61.881 28.7031C61.9331 28.2083 61.9331 27.7005 61.881 27.1797C61.8289 26.6589 61.7247 26.1901 61.5685 25.7734C61.4383 25.3307 61.256 24.9792 61.0216 24.7188C60.8133 24.4323 60.5528 24.2891 60.2403 24.2891C59.7456 24.2891 59.2638 24.4323 58.795 24.7188C58.3523 24.9792 57.9357 25.3568 57.545 25.8516ZM55.045 32.7266C55.045 33.1953 55.0711 33.6641 55.1232 34.1328C55.1752 34.5755 55.2794 34.9792 55.4357 35.3438C55.5919 35.6823 55.8002 35.9688 56.0607 36.2031C56.3211 36.4115 56.6596 36.5156 57.0763 36.5156C57.545 36.5156 57.9747 36.4115 58.3653 36.2031C58.756 35.9688 59.1075 35.6823 59.42 35.3438C59.7325 34.9792 60.006 34.5755 60.2403 34.1328C60.5008 33.6641 60.7221 33.1823 60.9044 32.6875C60.7221 32.7135 60.5398 32.7396 60.3575 32.7656C60.2013 32.7656 60.019 32.7656 59.8107 32.7656C58.8211 32.7656 57.9617 32.4792 57.2325 31.9062C56.5294 31.3073 55.9825 30.5521 55.5919 29.6406C55.4357 30.1875 55.3055 30.7214 55.2013 31.2422C55.0971 31.763 55.045 32.2578 55.045 32.7266ZM72.1153 15.4609C71.6987 15.4089 71.3471 15.2266 71.0607 14.9141C70.8002 14.5755 70.7091 14.1068 70.7872 13.5078C70.8393 13.1172 70.9695 12.7656 71.1778 12.4531C71.3862 12.1146 71.6336 11.8281 71.92 11.5938C72.2325 11.3594 72.5711 11.1901 72.9357 11.0859C73.3002 10.9818 73.6778 10.9427 74.0685 10.9688C74.7456 11.0469 75.1752 11.3854 75.3575 11.9844C75.5659 12.5573 75.6049 13.1953 75.4747 13.8984C75.4226 14.263 75.3185 14.6927 75.1622 15.1875C75.006 15.6823 74.7716 16.1901 74.4591 16.7109C74.1726 17.2318 73.8081 17.7396 73.3653 18.2344C72.9487 18.7292 72.4409 19.1719 71.8419 19.5625C71.5815 19.7188 71.3732 19.7969 71.2169 19.7969C71.0867 19.7708 70.9956 19.7057 70.9435 19.6016C70.8914 19.4714 70.8784 19.3151 70.9044 19.1328C70.9565 18.9505 71.0476 18.7812 71.1778 18.625C71.4643 18.3385 71.7638 17.9089 72.0763 17.3359C72.4148 16.737 72.6492 16.099 72.7794 15.4219C72.6492 15.4479 72.532 15.474 72.4278 15.5C72.3237 15.526 72.2195 15.513 72.1153 15.4609ZM80.006 36.6719C80.1622 36.776 80.3575 36.8281 80.5919 36.8281C80.8523 36.8281 81.0997 36.776 81.3341 36.6719C81.5945 36.5677 81.8289 36.4245 82.0372 36.2422C82.2716 36.0599 82.4409 35.8255 82.545 35.5391C82.6492 35.2526 82.6492 34.849 82.545 34.3281C82.4409 33.7812 82.2716 33.2083 82.0372 32.6094C81.8289 31.9844 81.5945 31.3594 81.3341 30.7344C81.0737 30.1094 80.8523 29.5365 80.67 29.0156C80.5138 28.625 80.3836 28.2604 80.2794 27.9219C80.1752 27.6354 80.0711 27.362 79.9669 27.1016C79.8888 26.8151 79.8237 26.6198 79.7716 26.5156C79.6414 26.724 79.407 27.0625 79.0685 27.5312C78.756 28 78.4044 28.4948 78.0138 29.0156C77.6492 29.5104 77.2976 29.9792 76.9591 30.4219C76.6206 30.8385 76.3862 31.125 76.256 31.2812C76.0476 31.5156 75.8393 31.6589 75.631 31.7109C75.4487 31.737 75.2924 31.6979 75.1622 31.5938C75.032 31.4635 74.9539 31.2943 74.9278 31.0859C74.9278 30.8516 75.032 30.5781 75.2403 30.2656C75.3966 30.0573 75.631 29.7318 75.9435 29.2891C76.256 28.8203 76.5685 28.3516 76.881 27.8828C77.1935 27.388 77.4799 26.9583 77.7403 26.5938C78.0008 26.2031 78.144 25.9688 78.17 25.8906C78.2221 25.6823 78.144 25.4089 77.9357 25.0703C77.7534 24.7318 77.7273 24.3411 77.8575 23.8984C77.9617 23.5339 78.1961 23.1172 78.5607 22.6484C78.9252 22.1536 79.3549 21.7109 79.8497 21.3203C80.3445 20.9297 80.8523 20.6432 81.3732 20.4609C81.894 20.2526 82.3627 20.2526 82.7794 20.4609C83.118 20.6693 83.3914 20.9036 83.5997 21.1641C83.8081 21.3984 83.8862 21.6458 83.8341 21.9062C83.782 22.0365 83.7039 22.2057 83.5997 22.4141C83.4956 22.6224 83.3393 22.8828 83.131 23.1953C82.9226 23.4818 82.6232 23.8594 82.2325 24.3281C82.3107 24.9271 82.4148 25.474 82.545 25.9688C82.7013 26.4635 82.8445 26.8932 82.9747 27.2578C83.131 27.7005 83.3002 28.1042 83.4825 28.4688C83.7169 28.9375 83.9643 29.4193 84.2247 29.9141C84.4851 30.4089 84.7195 30.9036 84.9278 31.3984C85.1362 31.8672 85.3055 32.3099 85.4357 32.7266C85.5659 33.1432 85.6049 33.4948 85.5528 33.7812C85.4747 34.224 85.2403 34.7578 84.8497 35.3828C84.4851 36.0078 84.0164 36.6198 83.4435 37.2188C82.8966 37.7917 82.2586 38.2865 81.5294 38.7031C80.8263 39.1198 80.0841 39.3281 79.3028 39.3281C78.756 39.3281 78.2221 39.1589 77.7013 38.8203C77.2065 38.4818 76.7768 38.0911 76.4122 37.6484C76.0737 37.1797 75.8133 36.724 75.631 36.2812C75.4747 35.8385 75.4617 35.5 75.5919 35.2656C75.7482 34.9531 75.8914 34.7057 76.0216 34.5234C76.1518 34.3411 76.3471 34.1328 76.6075 33.8984C76.7117 33.8203 76.8419 33.7292 76.9982 33.625C77.1284 33.5469 77.3107 33.4688 77.545 33.3906C77.7794 33.3125 78.0528 33.2214 78.3653 33.1172C78.6258 33.9245 78.8601 34.5625 79.0685 35.0312C79.2768 35.474 79.4461 35.8255 79.5763 36.0859C79.7325 36.3724 79.8758 36.5677 80.006 36.6719Z" fill="#4B5320"/>
<path d="M56.8711 74.2656C55.569 74.2656 54.3841 73.9531 53.3164 73.3281C52.2747 72.7031 51.3763 71.8438 50.6211 70.75C49.8919 69.6562 49.332 68.3802 48.9414 66.9219C48.5768 65.4375 48.4206 63.862 48.4727 62.1953C48.5247 60.6328 48.7201 58.9401 49.0586 57.1172C49.4232 55.2943 49.931 53.4714 50.582 51.6484C51.2331 49.7995 52.0143 48.0286 52.9258 46.3359C53.8633 44.6172 54.931 43.1068 56.1289 41.8047C57.3268 40.5026 58.6549 39.4609 60.1133 38.6797C61.5716 37.8724 63.1732 37.4688 64.918 37.4688C65.9857 37.4688 66.8841 37.6901 67.6133 38.1328C68.3685 38.5495 68.9674 39.1094 69.4102 39.8125C69.8789 40.5156 70.2044 41.3099 70.3867 42.1953C70.569 43.0807 70.6471 43.9792 70.6211 44.8906C70.569 45.75 70.4388 46.5833 70.2305 47.3906C70.0482 48.1979 69.7747 48.9271 69.4102 49.5781C69.0716 50.2031 68.6419 50.7109 68.1211 51.1016C67.6263 51.4661 67.0534 51.6484 66.4023 51.6484C66.0898 51.6224 65.7904 51.5182 65.5039 51.3359C65.2435 51.1797 64.9701 50.9453 64.6836 50.6328C64.4232 50.3203 64.1758 49.8646 63.9414 49.2656C64.6445 48.9792 65.1914 48.4844 65.582 47.7812C65.9987 47.0521 66.3112 46.2969 66.5195 45.5156C66.7539 44.6302 66.9102 43.6406 66.9883 42.5469C67.0404 41.4792 66.819 40.6979 66.3242 40.2031C65.8294 39.7083 65.2695 39.4609 64.6445 39.4609C63.4206 39.4609 62.1315 40.099 60.7773 41.375C59.4232 42.651 58.1602 44.3828 56.9883 46.5703C55.8424 48.7318 54.8659 51.2578 54.0586 54.1484C53.2773 57.0391 52.8216 60.099 52.6914 63.3281C52.6393 64.7865 52.7305 66.0234 52.9648 67.0391C53.2253 68.0547 53.5768 68.888 54.0195 69.5391C54.4883 70.1901 55.0091 70.6589 55.582 70.9453C56.1549 71.2318 56.7279 71.375 57.3008 71.375C58.2122 71.375 59.0716 71.1797 59.8789 70.7891C60.6862 70.3984 61.4154 69.9167 62.0664 69.3438C62.7435 68.7708 63.3164 68.1719 63.7852 67.5469C64.2799 66.9479 64.6576 66.4141 64.918 65.9453C65.1003 65.6068 65.2956 65.3984 65.5039 65.3203C65.7122 65.2422 65.8945 65.2682 66.0508 65.3984C66.207 65.5026 66.3112 65.6849 66.3633 65.9453C66.4154 66.1797 66.3633 66.4661 66.207 66.8047C65.7643 67.6901 65.2174 68.5755 64.5664 69.4609C63.9414 70.3464 63.2253 71.1406 62.418 71.8438C61.6367 72.5729 60.7773 73.1589 59.8398 73.6016C58.9023 74.0443 57.9128 74.2656 56.8711 74.2656ZM81.9883 60.7891C81.7279 61.7786 81.3763 62.7031 80.9336 63.5625C80.4909 64.4219 79.957 65.1641 79.332 65.7891C78.7331 66.4141 78.043 66.8958 77.2617 67.2344C76.5065 67.599 75.6732 67.7812 74.7617 67.7812C73.694 67.7812 72.8477 67.5469 72.2227 67.0781C71.6237 66.6354 71.168 66.0755 70.8555 65.3984C70.569 64.7214 70.3997 63.9792 70.3477 63.1719C70.2695 62.3646 70.2305 61.6094 70.2305 60.9062C70.2305 60.4115 70.2956 59.8646 70.4258 59.2656C70.5299 58.6667 70.6862 58.0547 70.8945 57.4297C71.1029 56.8047 71.3633 56.1797 71.6758 55.5547C72.0143 54.9297 72.4049 54.3568 72.8477 53.8359C73.0039 53.3932 73.2383 53.0026 73.5508 52.6641C73.8893 52.3255 74.2669 52.0521 74.6836 51.8438C75.1263 51.6094 75.5951 51.4401 76.0898 51.3359C76.5846 51.2057 77.0664 51.1406 77.5352 51.1406C77.6133 51.1406 77.6784 51.1536 77.7305 51.1797C77.8086 51.2057 77.8867 51.2318 77.9648 51.2578C78.3034 51.2839 78.7201 51.4141 79.2148 51.6484C79.7357 51.8828 80.2305 52.2344 80.6992 52.7031C81.194 53.1719 81.6107 53.7708 81.9492 54.5C82.2878 55.2031 82.457 56.0625 82.457 57.0781C82.457 57.2865 82.444 57.5469 82.418 57.8594C82.3919 58.1458 82.3659 58.3932 82.3398 58.6016C82.9388 58.3672 83.5638 58.0807 84.2148 57.7422C84.8659 57.4036 85.4909 57.0521 86.0898 56.6875C86.7148 56.2969 87.2878 55.9062 87.8086 55.5156C88.3294 55.125 88.7461 54.7734 89.0586 54.4609C89.319 54.2266 89.5404 54.0964 89.7227 54.0703C89.9049 54.0443 90.0352 54.0964 90.1133 54.2266C90.1914 54.3568 90.2044 54.5391 90.1523 54.7734C90.1003 55.0078 89.957 55.2682 89.7227 55.5547C89.5924 55.7109 89.2539 56.0234 88.707 56.4922C88.1862 56.9609 87.5612 57.4688 86.832 58.0156C86.1029 58.5625 85.3086 59.0964 84.4492 59.6172C83.5898 60.138 82.7695 60.5286 81.9883 60.7891ZM75.3867 54.8516C75.3086 55.0859 75.2695 55.3333 75.2695 55.5938C75.2695 56.0104 75.2956 56.4531 75.3477 56.9219C75.3997 57.3646 75.5299 57.7682 75.7383 58.1328C75.9466 58.4974 76.2721 58.8099 76.7148 59.0703C77.1836 59.3047 77.8216 59.4219 78.6289 59.4219C78.7591 59.4219 78.8893 59.4219 79.0195 59.4219C79.1497 59.3958 79.2799 59.3698 79.4102 59.3438C79.4883 59.0052 79.5534 58.7057 79.6055 58.4453C79.6836 58.1589 79.7227 57.9115 79.7227 57.7031C79.7747 57.2083 79.7747 56.7005 79.7227 56.1797C79.6706 55.6589 79.5664 55.1901 79.4102 54.7734C79.2799 54.3307 79.0977 53.9792 78.8633 53.7188C78.6549 53.4323 78.3945 53.2891 78.082 53.2891C77.5872 53.2891 77.1055 53.4323 76.6367 53.7188C76.194 53.9792 75.7773 54.3568 75.3867 54.8516ZM72.8867 61.7266C72.8867 62.1953 72.9128 62.6641 72.9648 63.1328C73.0169 63.5755 73.1211 63.9792 73.2773 64.3438C73.4336 64.6823 73.6419 64.9688 73.9023 65.2031C74.1628 65.4115 74.5013 65.5156 74.918 65.5156C75.3867 65.5156 75.8164 65.4115 76.207 65.2031C76.5977 64.9688 76.9492 64.6823 77.2617 64.3438C77.5742 63.9792 77.8477 63.5755 78.082 63.1328C78.3424 62.6641 78.5638 62.1823 78.7461 61.6875C78.5638 61.7135 78.3815 61.7396 78.1992 61.7656C78.043 61.7656 77.8607 61.7656 77.6523 61.7656C76.6628 61.7656 75.8034 61.4792 75.0742 60.9062C74.3711 60.3073 73.8242 59.5521 73.4336 58.6406C73.2773 59.1875 73.1471 59.7214 73.043 60.2422C72.9388 60.763 72.8867 61.2578 72.8867 61.7266ZM84.6836 66.8047C84.5013 67.0911 84.306 67.2734 84.0977 67.3516C83.8633 67.4557 83.668 67.4688 83.5117 67.3906C83.3294 67.3385 83.2122 67.2083 83.1602 67C83.1081 66.7917 83.1602 66.5312 83.3164 66.2188C83.3945 66.0625 83.5768 65.7109 83.8633 65.1641C84.1237 64.6172 84.4492 63.9661 84.8398 63.2109C85.2044 62.4297 85.6081 61.5964 86.0508 60.7109C86.4935 59.7995 86.9102 58.9401 87.3008 58.1328C87.7174 57.3255 88.0951 56.6094 88.4336 55.9844C88.7721 55.3333 89.0195 54.8646 89.1758 54.5781C88.8893 54.3177 88.694 54.1354 88.5898 54.0312C88.4857 53.901 88.4076 53.6406 88.3555 53.25C88.3034 52.9115 88.3815 52.4688 88.5898 51.9219C88.7982 51.375 89.0716 50.8542 89.4102 50.3594C89.7487 49.8385 90.1263 49.3958 90.543 49.0312C90.9596 48.6667 91.3633 48.4844 91.7539 48.4844C92.4831 48.4844 92.9909 48.7188 93.2773 49.1875C93.5898 49.6562 93.7721 50.138 93.8242 50.6328C93.8763 50.9714 93.8503 51.401 93.7461 51.9219C93.6419 52.4427 93.4466 52.9115 93.1602 53.3281C93.2383 53.3802 93.3424 53.4453 93.4727 53.5234C93.6029 53.5755 93.8112 53.6016 94.0977 53.6016C94.5143 53.6016 94.8008 53.5755 94.957 53.5234C95.1393 53.4714 95.4128 53.4453 95.7773 53.4453C96.2201 53.4453 96.5846 53.5625 96.8711 53.7969C97.1576 54.0052 97.3919 54.2786 97.5742 54.6172C97.7565 54.9297 97.8867 55.2812 97.9648 55.6719C98.069 56.0365 98.1341 56.375 98.1602 56.6875C98.2383 57.3385 98.069 58.0156 97.6523 58.7188C97.2357 59.4219 96.7279 60.1901 96.1289 61.0234C95.7643 61.5443 95.3997 62.1302 95.0352 62.7812C94.6706 63.4323 94.5143 64.0182 94.5664 64.5391C94.6185 64.8776 94.7096 65.151 94.8398 65.3594C94.9701 65.5677 95.3346 65.6719 95.9336 65.6719C96.3763 65.6719 96.8581 65.5156 97.3789 65.2031C97.9258 64.8646 98.4727 64.4479 99.0195 63.9531C99.5924 63.4323 100.152 62.8724 100.699 62.2734C101.246 61.6484 101.754 61.0495 102.223 60.4766C102.691 59.8776 103.082 59.3438 103.395 58.875C103.733 58.4062 103.98 58.0677 104.137 57.8594C104.267 57.651 104.436 57.5078 104.645 57.4297C104.853 57.3516 105.035 57.3516 105.191 57.4297C105.348 57.5078 105.439 57.6641 105.465 57.8984C105.517 58.1328 105.426 58.4453 105.191 58.8359C105.035 59.0964 104.762 59.513 104.371 60.0859C104.007 60.6589 103.551 61.2969 103.004 62C102.483 62.7031 101.897 63.4323 101.246 64.1875C100.595 64.9167 99.9049 65.5938 99.1758 66.2188C98.4727 66.8177 97.7565 67.3125 97.0273 67.7031C96.3242 68.0938 95.6471 68.2891 94.9961 68.2891C94.319 68.2891 93.7591 68.1589 93.3164 67.8984C92.8737 67.638 92.5091 67.3255 92.2227 66.9609C91.9622 66.5703 91.7669 66.1536 91.6367 65.7109C91.5326 65.2422 91.4935 64.8125 91.5195 64.4219C91.5456 64.1094 91.6237 63.7839 91.7539 63.4453C91.9102 63.0807 92.0794 62.7161 92.2617 62.3516C92.4701 61.9609 92.6784 61.5833 92.8867 61.2188C93.1211 60.8281 93.3294 60.4505 93.5117 60.0859C93.9544 59.3307 94.306 58.6927 94.5664 58.1719C94.8529 57.625 94.9961 57.1693 94.9961 56.8047C94.9961 56.5703 94.944 56.362 94.8398 56.1797C94.7357 55.9974 94.5664 55.9062 94.332 55.9062C94.1758 55.9062 94.0586 55.9193 93.9805 55.9453C93.9284 55.9453 93.8633 55.9453 93.7852 55.9453C93.7331 55.9453 93.6419 55.9583 93.5117 55.9844C93.4076 55.9844 93.2383 55.9844 93.0039 55.9844C92.6654 55.9844 92.3789 55.9323 92.1445 55.8281C91.9102 55.724 91.6888 55.6458 91.4805 55.5938C91.3763 55.776 91.1419 56.1667 90.7773 56.7656C90.4128 57.3646 89.9831 58.0677 89.4883 58.875C89.0195 59.6823 88.5117 60.5286 87.9648 61.4141C87.444 62.2995 86.9492 63.1328 86.4805 63.9141C86.0117 64.6693 85.6211 65.3203 85.3086 65.8672C84.9701 66.388 84.7617 66.7005 84.6836 66.8047ZM114.02 67.9766C113.421 67.9766 112.9 67.8594 112.457 67.625C112.04 67.4167 111.702 67.1302 111.441 66.7656C111.181 66.401 111.012 65.9844 110.934 65.5156C110.855 65.0208 110.882 64.5 111.012 63.9531C111.09 63.5885 111.22 63.1068 111.402 62.5078C111.585 61.8828 111.767 61.2188 111.949 60.5156C112.158 59.7865 112.34 59.0703 112.496 58.3672C112.678 57.638 112.796 56.987 112.848 56.4141C112.9 55.8151 112.874 55.3333 112.77 54.9688C112.665 54.5781 112.444 54.3828 112.105 54.3828C111.689 54.3828 111.259 54.526 110.816 54.8125C110.374 55.0729 109.918 55.4375 109.449 55.9062C109.007 56.375 108.551 56.9219 108.082 57.5469C107.639 58.1458 107.197 58.7708 106.754 59.4219C106.52 60.3073 106.324 61.0885 106.168 61.7656C106.012 62.4167 105.868 63.0156 105.738 63.5625C105.634 64.0833 105.53 64.5521 105.426 64.9688C105.322 65.3594 105.23 65.737 105.152 66.1016C105.074 66.362 104.84 66.6224 104.449 66.8828C104.059 67.1172 103.642 67.3125 103.199 67.4688C102.757 67.625 102.379 67.7031 102.066 67.7031C101.728 67.7031 101.585 67.5859 101.637 67.3516C101.663 67.1953 101.754 66.8438 101.91 66.2969C102.04 65.75 102.21 65.112 102.418 64.3828C102.6 63.6276 102.796 62.8333 103.004 62C103.212 61.1667 103.408 60.3724 103.59 59.6172C103.72 59.0182 103.863 58.3542 104.02 57.625C104.15 57 104.306 56.2708 104.488 55.4375C104.697 54.6042 104.931 53.6927 105.191 52.7031C105.374 52.5469 105.556 52.4297 105.738 52.3516C105.947 52.2474 106.155 52.1693 106.363 52.1172C106.572 52.0391 106.793 51.987 107.027 51.9609C107.236 51.9609 107.444 51.974 107.652 52C107.835 52.026 108.017 52.0781 108.199 52.1562C108.408 52.2083 108.59 52.2995 108.746 52.4297C108.668 52.612 108.577 52.8724 108.473 53.2109C108.368 53.5234 108.264 53.862 108.16 54.2266C108.056 54.6432 107.926 55.0729 107.77 55.5156C108.108 55.0469 108.486 54.5781 108.902 54.1094C109.345 53.6146 109.814 53.1719 110.309 52.7812C110.829 52.3906 111.376 52.0781 111.949 51.8438C112.522 51.5833 113.108 51.4531 113.707 51.4531C114.202 51.4531 114.645 51.5964 115.035 51.8828C115.426 52.1693 115.725 52.5729 115.934 53.0938C116.168 53.5885 116.298 54.1875 116.324 54.8906C116.376 55.5938 116.285 56.362 116.051 57.1953L115.621 58.9141C115.491 59.4609 115.322 60.112 115.113 60.8672C114.931 61.5964 114.697 62.4036 114.41 63.2891C114.254 63.862 114.189 64.3568 114.215 64.7734C114.267 65.1901 114.527 65.3984 114.996 65.3984C115.465 65.3984 116.051 65.112 116.754 64.5391C117.483 63.9661 118.212 63.276 118.941 62.4688C119.671 61.6615 120.361 60.8411 121.012 60.0078C121.663 59.1484 122.158 58.4583 122.496 57.9375C122.73 57.599 122.952 57.3776 123.16 57.2734C123.368 57.1693 123.525 57.1562 123.629 57.2344C123.759 57.3125 123.824 57.4948 123.824 57.7812C123.824 58.0417 123.72 58.3802 123.512 58.7969C123.329 59.1615 123.043 59.6432 122.652 60.2422C122.288 60.8411 121.845 61.4792 121.324 62.1562C120.803 62.8333 120.243 63.5234 119.645 64.2266C119.046 64.9036 118.421 65.5286 117.77 66.1016C117.118 66.6484 116.467 67.0911 115.816 67.4297C115.191 67.7943 114.592 67.9766 114.02 67.9766ZM138.59 58.875C137.809 60.0208 136.923 61.1406 135.934 62.2344C134.944 63.3021 133.889 64.2656 132.77 65.125C131.676 65.9583 130.543 66.6354 129.371 67.1562C128.225 67.6771 127.105 67.9375 126.012 67.9375C125.439 67.9375 124.814 67.7943 124.137 67.5078C123.486 67.2474 122.887 66.8307 122.34 66.2578C121.793 65.6849 121.35 64.9427 121.012 64.0312C120.699 63.1198 120.608 62.013 120.738 60.7109C120.842 59.6432 121.168 58.5234 121.715 57.3516C122.288 56.1536 122.978 55.0599 123.785 54.0703C124.618 53.0807 125.543 52.2604 126.559 51.6094C127.6 50.9583 128.642 50.6328 129.684 50.6328C130.673 50.6328 131.389 50.8802 131.832 51.375C132.275 51.8698 132.47 52.4818 132.418 53.2109C132.34 54.0182 132.105 54.7604 131.715 55.4375C131.35 56.1146 130.908 56.7266 130.387 57.2734C129.866 57.8203 129.306 58.3151 128.707 58.7578C128.134 59.2005 127.587 59.6042 127.066 59.9688C126.493 60.3594 125.947 60.737 125.426 61.1016C124.905 61.4401 124.449 61.7526 124.059 62.0391C124.085 62.6901 124.202 63.237 124.41 63.6797C124.618 64.1224 124.879 64.487 125.191 64.7734C125.504 65.0339 125.855 65.2292 126.246 65.3594C126.663 65.4635 127.079 65.5156 127.496 65.5156C128.382 65.5156 129.306 65.2422 130.27 64.6953C131.233 64.1224 132.171 63.4453 133.082 62.6641C134.02 61.8568 134.879 61.0234 135.66 60.1641C136.467 59.3047 137.132 58.5625 137.652 57.9375C137.835 57.7292 138.017 57.612 138.199 57.5859C138.408 57.5339 138.564 57.5599 138.668 57.6641C138.798 57.7422 138.863 57.8984 138.863 58.1328C138.863 58.3411 138.772 58.5885 138.59 58.875ZM128.59 52.8594C128.277 52.8594 127.9 53.0156 127.457 53.3281C127.04 53.6406 126.624 54.0964 126.207 54.6953C125.79 55.2682 125.4 55.9844 125.035 56.8438C124.671 57.6771 124.397 58.6406 124.215 59.7344C124.527 59.5 124.866 59.2656 125.23 59.0312C125.595 58.7708 125.96 58.4974 126.324 58.2109C127.444 57.3516 128.225 56.5964 128.668 55.9453C129.111 55.2943 129.358 54.7344 129.41 54.2656C129.462 53.7708 129.41 53.4193 129.254 53.2109C129.098 52.9766 128.876 52.8594 128.59 52.8594ZM134.293 66.8047C134.111 67.0911 133.915 67.2734 133.707 67.3516C133.473 67.4557 133.277 67.4688 133.121 67.3906C132.939 67.3385 132.822 67.2083 132.77 67C132.717 66.7917 132.77 66.5312 132.926 66.2188C133.004 66.0625 133.186 65.7109 133.473 65.1641C133.733 64.6172 134.059 63.9661 134.449 63.2109C134.814 62.4297 135.217 61.5964 135.66 60.7109C136.103 59.7995 136.52 58.9401 136.91 58.1328C137.327 57.3255 137.704 56.6094 138.043 55.9844C138.382 55.3333 138.629 54.8646 138.785 54.5781C138.499 54.3177 138.303 54.1354 138.199 54.0312C138.095 53.901 138.017 53.6406 137.965 53.25C137.913 52.9115 137.991 52.4688 138.199 51.9219C138.408 51.375 138.681 50.8542 139.02 50.3594C139.358 49.8385 139.736 49.3958 140.152 49.0312C140.569 48.6667 140.973 48.4844 141.363 48.4844C142.092 48.4844 142.6 48.7188 142.887 49.1875C143.199 49.6562 143.382 50.138 143.434 50.6328C143.486 50.9714 143.46 51.401 143.355 51.9219C143.251 52.4427 143.056 52.9115 142.77 53.3281C142.848 53.3802 142.952 53.4453 143.082 53.5234C143.212 53.5755 143.421 53.6016 143.707 53.6016C144.124 53.6016 144.41 53.5755 144.566 53.5234C144.749 53.4714 145.022 53.4453 145.387 53.4453C145.829 53.4453 146.194 53.5625 146.48 53.7969C146.767 54.0052 147.001 54.2786 147.184 54.6172C147.366 54.9297 147.496 55.2812 147.574 55.6719C147.678 56.0365 147.743 56.375 147.77 56.6875C147.848 57.3385 147.678 58.0156 147.262 58.7188C146.845 59.4219 146.337 60.1901 145.738 61.0234C145.374 61.5443 145.009 62.1302 144.645 62.7812C144.28 63.4323 144.124 64.0182 144.176 64.5391C144.228 64.8776 144.319 65.151 144.449 65.3594C144.579 65.5677 144.944 65.6719 145.543 65.6719C145.986 65.6719 146.467 65.5156 146.988 65.2031C147.535 64.8646 148.082 64.4479 148.629 63.9531C149.202 63.4323 149.762 62.8724 150.309 62.2734C150.855 61.6484 151.363 61.0495 151.832 60.4766C152.301 59.8776 152.691 59.3438 153.004 58.875C153.342 58.4062 153.59 58.0677 153.746 57.8594C153.876 57.651 154.046 57.5078 154.254 57.4297C154.462 57.3516 154.645 57.3516 154.801 57.4297C154.957 57.5078 155.048 57.6641 155.074 57.8984C155.126 58.1328 155.035 58.4453 154.801 58.8359C154.645 59.0964 154.371 59.513 153.98 60.0859C153.616 60.6589 153.16 61.2969 152.613 62C152.092 62.7031 151.507 63.4323 150.855 64.1875C150.204 64.9167 149.514 65.5938 148.785 66.2188C148.082 66.8177 147.366 67.3125 146.637 67.7031C145.934 68.0938 145.257 68.2891 144.605 68.2891C143.928 68.2891 143.368 68.1589 142.926 67.8984C142.483 67.638 142.118 67.3255 141.832 66.9609C141.572 66.5703 141.376 66.1536 141.246 65.7109C141.142 65.2422 141.103 64.8125 141.129 64.4219C141.155 64.1094 141.233 63.7839 141.363 63.4453C141.52 63.0807 141.689 62.7161 141.871 62.3516C142.079 61.9609 142.288 61.5833 142.496 61.2188C142.73 60.8281 142.939 60.4505 143.121 60.0859C143.564 59.3307 143.915 58.6927 144.176 58.1719C144.462 57.625 144.605 57.1693 144.605 56.8047C144.605 56.5703 144.553 56.362 144.449 56.1797C144.345 55.9974 144.176 55.9062 143.941 55.9062C143.785 55.9062 143.668 55.9193 143.59 55.9453C143.538 55.9453 143.473 55.9453 143.395 55.9453C143.342 55.9453 143.251 55.9583 143.121 55.9844C143.017 55.9844 142.848 55.9844 142.613 55.9844C142.275 55.9844 141.988 55.9323 141.754 55.8281C141.52 55.724 141.298 55.6458 141.09 55.5938C140.986 55.776 140.751 56.1667 140.387 56.7656C140.022 57.3646 139.592 58.0677 139.098 58.875C138.629 59.6823 138.121 60.5286 137.574 61.4141C137.053 62.2995 136.559 63.1328 136.09 63.9141C135.621 64.6693 135.23 65.3203 134.918 65.8672C134.579 66.388 134.371 66.7005 134.293 66.8047Z" fill="#4B5320"/>
</svg>
